<?xml version="1.0" standalone="no"?><!DOCTYPE svg PUBLIC "-//W3C//DTD SVG 1.1//EN" "http://www.w3.org/Graphics/SVG/1.1/DTD/svg11.dtd"><svg class="icon" width="1024px" height="1024.00px" viewBox="0 0 1024 1024" version="1.1" xmlns="http://www.w3.org/2000/svg"><path d="M738.816 558.208l0.64 0.448a460.288 460.288 0 0 1 232.576 400c0 3.072-0.192 6.528-0.256 9.6-0.384 18.56-1.792 37.504-4.288 55.744H56.512a481.92 481.92 0 0 1-4.288-55.68c-0.064-3.072-0.256-7.04-0.256-10.048A459.328 459.328 0 0 1 284.544 558.72c16.512 14.336 34.24 27.072 53.12 38.08a405.248 405.248 0 0 0-53.312 31.36 402.112 402.112 0 0 0-173.824 330.944c0 3.072 0.128 0.896 0.192 10.048h802.56c0-9.152 0.192-7.04 0.192-10.048a402.88 402.88 0 0 0-227.136-362.496l-0.384-0.192c18.496-11.2 36.288-23.872 52.864-38.208zM512 0l13.504 0.32a296.448 296.448 0 0 1 282.56 295.744A296.384 296.384 0 0 1 512 592.128a296.384 296.384 0 0 1-296.064-296.064A296.384 296.384 0 0 1 512 0z m0 58.496L499.392 58.88a237.888 237.888 0 0 0-224.96 237.184A237.824 237.824 0 0 0 512 533.632a237.824 237.824 0 0 0 237.568-237.568A237.824 237.824 0 0 0 512 58.496z" fill="#1296db" /></svg>