<?xml version="1.0" standalone="no"?><!DOCTYPE svg PUBLIC "-//W3C//DTD SVG 1.1//EN" "http://www.w3.org/Graphics/SVG/1.1/DTD/svg11.dtd"><svg t="1614049685642" class="icon" viewBox="0 0 1024 1024" version="1.1" xmlns="http://www.w3.org/2000/svg" p-id="5765" xmlns:xlink="http://www.w3.org/1999/xlink" width="1024" height="1024"><defs><style type="text/css"></style></defs><path d="M988.16 517.632C988.16 248.832 775.168 35.84 506.368 35.84 248.832 35.84 35.84 248.832 35.84 517.632 35.84 775.168 248.832 988.16 506.368 988.16c268.8 0 481.792-212.992 481.792-470.528z m-727.04 12.288c-2.048-2.048-2.048-5.632-0.512-7.68l21.504-29.184c1.536-2.048 5.12-2.56 7.168-1.024l127.488 97.792c2.048 1.536 5.632 1.536 8.192 0l310.272-258.56c2.048-2.048 5.632-1.536 7.68 0.512l20.48 19.968c2.048 2.048 2.048 5.12 0 7.168L424.96 692.224c-2.048 2.048-5.12 2.048-7.168 0L261.12 529.92z" fill="#13ba84" p-id="5766"></path></svg>