<?xml version="1.0" standalone="no"?><!DOCTYPE svg PUBLIC "-//W3C//DTD SVG 1.1//EN" "http://www.w3.org/Graphics/SVG/1.1/DTD/svg11.dtd"><svg t="1614049784755" class="icon" viewBox="0 0 1024 1024" version="1.1" xmlns="http://www.w3.org/2000/svg" p-id="6530" xmlns:xlink="http://www.w3.org/1999/xlink" width="1024" height="1024"><defs><style type="text/css"></style></defs><path d="M512 10.666667C373.546667 10.666667 248.234667 66.773333 157.504 157.504A499.754667 499.754667 0 0 0 10.666667 512c0 138.453333 56.106667 263.765333 146.837333 354.496A499.754667 499.754667 0 0 0 512 1013.333333c138.453333 0 263.765333-56.106667 354.496-146.837333A499.754667 499.754667 0 0 0 1013.333333 512c0-138.453333-56.106667-263.765333-146.837333-354.496A499.754667 499.754667 0 0 0 512 10.666667z" fill="#F08082" p-id="6531"></path><path d="M567.296 522.666667l212.394667-212.373334a31.850667 31.850667 0 0 0 0-45.653333 31.850667 31.850667 0 0 0-45.653334 2.112l-212.394666 212.394667-212.394667-212.394667a31.850667 31.850667 0 0 0-45.653333 0c-10.88 12.8-9.962667 31.850667 2.133333 43.52l212.373333 212.416-212.394666 212.373333a31.850667 31.850667 0 0 0 0 45.653334c6.4 5.333333 14.549333 8 22.826666 7.466666 7.936-0.682667 15.317333-4.266667 20.714667-10.112l212.394667-209.706666 212.394666 212.373333a32.384 32.384 0 0 0 43.52-45.653333L567.317333 522.666667z" fill="#FFFFFF" p-id="6532"></path></svg>