<?xml version="1.0" standalone="no"?><!DOCTYPE svg PUBLIC "-//W3C//DTD SVG 1.1//EN" "http://www.w3.org/Graphics/SVG/1.1/DTD/svg11.dtd"><svg t="1614050045454" class="icon" viewBox="0 0 1024 1024" version="1.1" xmlns="http://www.w3.org/2000/svg" p-id="8072" xmlns:xlink="http://www.w3.org/1999/xlink" width="1024" height="1024"><defs><style type="text/css"></style></defs><path d="M862.9 191.95H353.64c-29.49-0.04-57.45 13.19-76.18 36.06L78.93 467.29c-0.39 0.43-0.74 0.89-1.09 1.36a72.538 72.538 0 0 0-13.91 43.29c0.07 17.02 5.97 33.5 16.7 46.68l197.22 237.84c18.74 22.58 46.51 35.62 75.79 35.59H862.9c53.65-0.09 97.11-43.73 97.18-97.59V289.5c-0.07-53.85-43.54-97.49-97.18-97.55zM702.56 623.18a29.493 29.493 0 0 1-20.92 8.71c-7.86 0-15.4-3.14-20.96-8.71l-68.85-69.12-68.85 69.12a29.78 29.78 0 0 1-21 8.71c-11.99-0.02-22.79-7.28-27.37-18.4-4.58-11.12-2.05-23.92 6.41-32.44l68.74-69.12-68.85-69.12c-11.58-11.63-11.58-30.49 0-42.12 5.56-5.58 13.1-8.72 20.96-8.72s15.4 3.14 20.96 8.72l68.89 69.16 68.85-69.16c11.59-11.62 30.37-11.61 41.94 0.02 11.58 11.63 11.57 30.48-0.02 42.1l-68.74 69.12 68.85 69.12c11.57 11.65 11.55 30.51-0.04 42.13z" p-id="8073" fill="#f4ea2a"></path></svg>